<?xml version="1.0" encoding="utf-8"?>
<!-- Generator: Adobe Illustrator 27.6.1, SVG Export Plug-In . SVG Version: 6.00 Build 0)  -->
<svg version="1.1" id="Layer_1" xmlns="http://www.w3.org/2000/svg" xmlns:xlink="http://www.w3.org/1999/xlink" x="0px" y="0px"
	 viewBox="0 0 2000 2000" style="enable-background:new 0 0 2000 2000;" xml:space="preserve">
<style type="text/css">
	.st0{fill:#0C0346;}
	.st1{fill:#FFFFFF;}
	.st2{fill:#05DB6C;}
</style>
<g>
	<path class="st0" d="M1766.54,1219.98H233.46c-38.42,0-69.56-31.14-69.56-69.56V849.59c0-38.42,31.14-69.56,69.56-69.56h1533.09
		c38.42,0,69.56,31.14,69.56,69.56v300.82C1836.11,1188.83,1804.96,1219.98,1766.54,1219.98z"/>
	<g>
		<g>
			<path class="st1" d="M476.08,892.39h90.16c10.33,0,20.5-2.69,29.41-7.92c9.13-5.36,19.08-13.49,22.28-24.53
				c7.67-23.18,11.5-38.25,11.5-38.25h-99.68c0,0-30.67,1.16-40.9,28.97C478.63,878.49,476.08,892.39,476.08,892.39z"/>
		</g>
		<g>
			<path class="st1" d="M593.08,1058.2c0-3.67,0.2-7.53,0.61-11.61c0.41-4.07,1.02-8.35,1.83-12.83l7.33-37.88
				c1.42-7.33,2.6-14.92,3.51-22.76c0.92-7.84,1.17-15.73,0.76-23.67l2.44-3.67h67.81l-17.11,87.98c-0.41,2.44-0.72,4.73-0.92,6.87
				c-0.21,2.14-0.31,3.92-0.31,5.35c0,5.5,1.58,10.34,4.74,14.51c3.15,4.18,9.32,6.26,18.48,6.26c2.64,0,5.24-0.2,7.79-0.61
				c2.54-0.41,5.04-0.92,7.48-1.53c0.41-7.94,1.42-16.19,3.06-24.74l8.55-43.99c1.42-7.33,2.6-14.92,3.51-22.76
				c0.92-7.84,1.17-15.73,0.76-23.67l2.44-3.67h67.82l-20.77,106.3c-1.43,7.74-2.8,16.04-4.12,24.9c-1.33,8.86-1.99,17.26-1.99,25.2
				l-2.44,2.44c-9.16,3.06-20.77,5.86-34.82,8.4c-14.05,2.54-28.1,3.82-42.16,3.82c-27.49,0-48.42-4.43-62.77-13.29
				C600.25,1094.7,593.08,1079.58,593.08,1058.2z"/>
		</g>
		<g>
			<path class="st1" d="M894.27,1116.85c-17.52,0-33.5-2.4-47.96-7.18c-14.46-4.78-25.97-12.73-34.52-23.83
				c-8.55-11.1-12.83-26.01-12.83-44.75c0-20.77,4.32-38.64,12.98-53.61c8.65-14.97,20.36-26.47,35.13-34.52
				c14.76-8.04,31.31-12.07,49.64-12.07c27.49,0,47.2,5.91,59.11,17.72c11.91,11.81,17.87,27.49,17.87,47.04
				c0,6.11-0.56,12.68-1.68,19.7c-1.12,7.03-2.6,13.9-4.43,20.62H863.42c2.03,8.55,6.67,14.56,13.9,18.02
				c7.23,3.47,16.54,5.19,27.95,5.19c7.94,0,16.04-0.81,24.28-2.44c8.25-1.63,14.82-3.67,19.7-6.11h3.67l-9.77,48.88
				C928.48,1114.41,912.19,1116.85,894.27,1116.85z M894.27,983.66c-6.93,0-12.98,2.4-18.18,7.18c-5.19,4.79-8.91,11.76-11.15,20.92
				h48.88c0.41-1.63,0.71-3.21,0.92-4.74c0.2-1.53,0.31-3.21,0.31-5.04c0-5.5-1.78-9.93-5.35-13.29
				C906.13,985.34,900.99,983.66,894.27,983.66z"/>
		</g>
		<g>
			<path class="st1" d="M987.14,1113.18l35.13-182.06c1.42-7.33,2.6-14.92,3.51-22.76c0.92-7.84,1.17-15.73,0.76-23.67l2.44-3.67
				h68.12l-45.21,232.16H987.14z"/>
		</g>
		<g>
			<path class="st1" d="M1112.99,1005.66c1.63-7.74,3.06-16.04,4.28-24.9c1.22-8.86,1.83-17.26,1.83-25.2l2.44-2.44
				c9.16-3.06,20.01-5.85,32.53-8.4c12.52-2.54,28.56-3.82,48.11-3.82c2.44,0,6.67,0.15,12.68,0.46c6,0.31,12.78,0.97,20.31,1.99
				l-9.78,50.1h-3.67c-7.33-2.44-15.07-3.67-23.22-3.67c-8.55,0-15.27,0.61-20.16,1.83c-0.21,8.55-1.22,17.31-3.06,26.27
				l-18.33,95.31h-64.76L1112.99,1005.66z"/>
		</g>
		<g>
			<path class="st1" d="M1231.51,1113.18l22.6-117.3c1.42-7.33,2.6-14.92,3.51-22.76c0.92-7.84,1.17-15.73,0.76-23.67l2.44-3.67
				h67.81l-32.38,167.4H1231.51z M1302.38,923.79c-9.78,0-17.11-2.64-21.99-7.94c-4.89-5.29-7.33-11.61-7.33-18.94
				c0-11,3.71-19.86,11.15-26.58c7.43-6.72,16.34-10.08,26.73-10.08c9.77,0,17.11,2.65,21.99,7.94c4.89,5.3,7.33,11.61,7.33,18.94
				c0,11-3.72,19.86-11.15,26.58C1321.68,920.43,1312.77,923.79,1302.38,923.79z"/>
		</g>
		<g>
			<path class="st1" d="M1428.24,1115.63c-20.77,0-37.27-4.32-49.49-12.98c-12.22-8.65-18.33-23.06-18.33-43.22
				c0-3.46,0.2-7.03,0.61-10.69c0.41-3.67,1.02-7.43,1.83-11.3l8.25-42.77h-28.41l9.78-48.88h27.8l7.64-40.32h64.76l-7.64,40.32
				h43.07l-9.77,48.88h-42.77l-8.55,43.99c-0.21,1.43-0.41,2.95-0.61,4.58c-0.21,1.63-0.31,2.95-0.31,3.97
				c0,5.5,1.83,9.93,5.5,13.29c3.67,3.36,9.47,5.04,17.41,5.04c7.33,0,14.25-1.63,20.77-4.89h3.67l-9.78,50.1
				c-5.5,1.43-10.95,2.6-16.34,3.51C1441.93,1115.17,1435.57,1115.63,1428.24,1115.63z"/>
		</g>
		<g>
			<path class="st1" d="M1595.03,1116.85c-17.52,0-33.5-2.4-47.96-7.18c-14.46-4.78-25.97-12.73-34.52-23.83
				c-8.55-11.1-12.83-26.01-12.83-44.75c0-20.77,4.32-38.64,12.98-53.61c8.65-14.97,20.36-26.47,35.13-34.52
				c14.76-8.04,31.31-12.07,49.64-12.07c27.49,0,47.2,5.91,59.11,17.72c11.91,11.81,17.87,27.49,17.87,47.04
				c0,6.11-0.56,12.68-1.68,19.7c-1.12,7.03-2.6,13.9-4.43,20.62h-104.17c2.03,8.55,6.67,14.56,13.9,18.02
				c7.23,3.47,16.54,5.19,27.95,5.19c7.94,0,16.04-0.81,24.28-2.44c8.25-1.63,14.82-3.67,19.7-6.11h3.67l-9.77,48.88
				C1629.24,1114.41,1612.94,1116.85,1595.03,1116.85z M1595.03,983.66c-6.93,0-12.98,2.4-18.18,7.18
				c-5.19,4.79-8.91,11.76-11.15,20.92h48.88c0.41-1.63,0.71-3.21,0.92-4.74c0.2-1.53,0.31-3.21,0.31-5.04
				c0-5.5-1.78-9.93-5.35-13.29C1606.89,985.34,1601.75,983.66,1595.03,983.66z"/>
		</g>
		<g>
			<path class="st1" d="M439.93,1037.4l2.64-9.36c1.66-6.31,2.7-10.34,2.7-10.34l0.21,0l20.81-73.84l13.49-53.96h-40.78
				c-29.98,0-56.51,19.69-64.9,48.47c-0.13,0.45-0.26,0.91-0.39,1.37c-12.78,46.01-47.29,176.36-47.29,176.36h47.91
				c12.43,0,24.66-3.47,35.08-10.25c7.93-5.16,15.37-12.59,17.97-22.98c4.16-13.88,9.08-31.91,12.71-45.49L439.93,1037.4z"/>
		</g>
		<path class="st2" d="M515.49,943.64v-0.08H411.91c0.02-0.1,0.04-0.15,0.04-0.15h-99.32c0,0-30.67,1.17-40.9,29.17
			c-10.22,28-12.78,42.01-12.78,42.01H359.5v0.27h155.99v-0.04c13.83-0.01,27.4-4.28,38.45-12.59c6.78-5.09,12.95-11.77,15.34-20.08
			c7.67-23.34,11.14-38.51,11.14-38.51H515.49z"/>
	</g>
</g>
</svg>
